<svg xmlns="http://www.w3.org/2000/svg" viewBox="0 0 16 16" width="16" height="16" fill="none" stroke="currentColor" stroke-width="1.2" stroke-linecap="round" stroke-linejoin="round">
  <!-- Folder with gear/cog -->
  <path d="M1.5 3h4l1.5 1.5h7a1 1 0 0 1 1 1V13a1 1 0 0 1-1 1h-12a1 1 0 0 1-1-1V4a1 1 0 0 1 1-1z"/>
  <!-- Small gear inside -->
  <circle cx="8" cy="9.5" r="1.5"/>
  <line x1="8" y1="7" x2="8" y2="7.8"/>
  <line x1="8" y1="11.2" x2="8" y2="12"/>
  <line x1="5.8" y1="8.2" x2="6.4" y2="8.8"/>
  <line x1="9.6" y1="10.2" x2="10.2" y2="10.8"/>
  <line x1="5.8" y1="10.8" x2="6.4" y2="10.2"/>
  <line x1="9.6" y1="8.8" x2="10.2" y2="8.2"/>
</svg>
